<svg width="540" height="390" viewBox="0 0 540 390" fill="none" xmlns="http://www.w3.org/2000/svg">
<path d="M468.005 234.914C470.783 286.089 370.732 390.147 247.412 351.632C190.057 333.717 194.915 303.983 151.303 264.795C125.307 241.439 87.956 223.778 77.568 189.828C68.594 160.524 74.097 129.026 89.656 108.539C124.646 62.4652 195.286 30.9152 264.888 103.509C334.49 176.103 460.828 102.93 468.005 234.914V234.914Z" fill="url(#paint0_linear)"/>
<path d="M424.591 103.827C415.422 120.19 395.343 122.438 363.173 119.328C338.98 116.985 316.917 115.173 292.722 101.981C275.787 92.754 262.382 80.271 252.597 68.146C241.995 55.012 227.196 40.021 234.451 25.129C244.421 4.67099 302.075 -12.559 358.06 15.618C419.559 46.579 433.56 87.834 424.591 103.827V103.827Z" fill="url(#paint1_linear)"/>
<path d="M150.909 366.021C128.421 334.561 105.39 301.124 75.2391 284.654C44.1381 267.659 38.402 278.134 36.25 294.786C34.097 311.439 43.6921 350.896 86.1351 373.346C128.59 395.802 171.951 395.465 150.909 366.021Z" fill="url(#paint2_linear)"/>
<path d="M476.329 153.507C460.414 157.277 443.582 143.78 443.582 143.78C443.582 143.78 452.564 124.178 468.484 120.42C484.399 116.65 501.226 130.135 501.226 130.135C501.226 130.135 492.243 149.737 476.329 153.507Z" fill="url(#paint3_linear)"/>
<path d="M502.711 300.558C517.139 310.496 539.182 303.549 539.182 303.549C539.182 303.549 537.817 280.492 523.379 270.563C508.951 260.625 486.918 267.562 486.918 267.562C486.918 267.562 488.282 290.62 502.711 300.558Z" fill="url(#paint4_linear)"/>
<path d="M13.0029 198.199C28.6449 214.119 57.8959 210.763 57.8959 210.763C57.8959 210.763 61.7659 181.594 46.1099 165.683C30.4679 149.763 1.23193 153.11 1.23193 153.11C1.23193 153.11 -2.63906 182.279 13.0029 198.199V198.199Z" fill="url(#paint5_linear)"/>
<path d="M491.84 203.816C485.42 203.816 480.215 208.794 480.215 214.935C480.215 221.076 485.42 226.054 491.84 226.054C498.26 226.054 503.465 221.076 503.465 214.935C503.465 208.794 498.26 203.816 491.84 203.816Z" fill="#2BC56B"/>
<path d="M100.359 294.592C91.7058 294.592 84.691 301.38 84.691 309.754C84.691 318.128 91.7058 324.916 100.359 324.916C109.012 324.916 116.027 318.128 116.027 309.754C116.027 301.38 109.012 294.592 100.359 294.592Z" fill="#2BC56B"/>
<path d="M91.224 115.784C84.9225 115.784 79.814 110.675 79.814 104.374C79.814 98.0723 84.9225 92.9639 91.224 92.9639C97.5256 92.9639 102.634 98.0723 102.634 104.374C102.634 110.675 97.5256 115.784 91.224 115.784Z" fill="#2BC56B"/>
<path d="M365.614 89.228C359.752 89.228 355 84.476 355 78.614C355 72.752 359.752 68 365.614 68C371.476 68 376.228 72.752 376.228 78.614C376.228 84.476 371.476 89.228 365.614 89.228Z" fill="#2BC56B"/>
<path d="M468.548 324.727C463.276 324.727 459.002 320.453 459.002 315.181C459.002 309.909 463.276 305.635 468.548 305.635C473.82 305.635 478.094 309.909 478.094 315.181C478.094 320.453 473.82 324.727 468.548 324.727Z" fill="#2BC56B"/>
<path d="M69.19 250.412C63.645 250.412 59.15 245.917 59.15 240.372C59.15 234.827 63.645 230.332 69.19 230.332C74.7349 230.332 79.23 234.827 79.23 240.372C79.23 245.917 74.7349 250.412 69.19 250.412Z" fill="#2BC56B"/>
<path d="M179.355 363.969C176.623 363.969 174.408 361.754 174.408 359.022C174.408 356.29 176.623 354.075 179.355 354.075C182.087 354.075 184.302 356.29 184.302 359.022C184.302 361.754 182.087 363.969 179.355 363.969Z" fill="#2BC56B"/>
<path d="M418.449 75.3598C414.279 75.3598 410.898 71.9791 410.898 67.8088C410.898 63.6385 414.279 60.2578 418.449 60.2578C422.619 60.2578 426 63.6385 426 67.8088C426 71.9791 422.619 75.3598 418.449 75.3598Z" fill="#2BC56B"/>
<path d="M101.348 180.076C102.054 182.711 100.491 185.419 97.8558 186.125C95.221 186.831 92.5127 185.268 91.8067 182.633C91.1008 179.998 92.6644 177.29 95.2992 176.584C97.9339 175.878 100.642 177.442 101.348 180.076Z" fill="#2BC56B"/>
<path d="M171.781 100.289C168.153 100.289 165.211 97.3474 165.211 93.7189C165.211 90.0904 168.153 87.1489 171.781 87.1489C175.41 87.1489 178.351 90.0904 178.351 93.7189C178.351 97.3474 175.41 100.289 171.781 100.289Z" fill="#2BC56B"/>
<path d="M412.087 202.357C409.296 202.357 407.033 200.547 407.033 198.314C407.033 196.081 409.296 194.271 412.087 194.271C414.878 194.271 417.141 196.081 417.141 198.314C417.141 200.547 414.878 202.357 412.087 202.357Z" fill="#2BC56B"/>
<path d="M342.518 30.9283C343.987 36.4118 340.733 42.0481 335.249 43.5174C329.766 44.9867 324.129 41.7326 322.66 36.2491C321.191 30.7656 324.445 25.1292 329.929 23.6599C335.412 22.1906 341.048 25.4448 342.518 30.9283Z" fill="#2BC56B"/>
<path d="M529.547 157.149H529.679C530.462 168.243 538.712 168.414 538.712 168.414C538.712 168.414 529.614 168.591 529.614 181.409C529.614 168.591 520.517 168.414 520.517 168.414C520.517 168.414 528.764 168.243 529.547 157.149ZM148.944 4.41992H149.172C150.52 23.8339 164.729 24.1329 164.729 24.1329C164.729 24.1329 149.061 24.4439 149.061 46.8749C149.061 24.4439 133.393 24.1329 133.393 24.1329C133.393 24.1329 147.595 23.8339 148.944 4.41992V4.41992Z" fill="#2BC56B"/>
<path d="M333.62 306.095C333.62 306.095 356.842 300.747 359.208 298.443C361.579 296.152 373.029 284.663 381.619 281.239C390.198 277.818 396.742 282.615 398.985 288.161L390.134 296.358C390.134 296.358 404.2 290.505 409.786 294.349C415.372 298.193 414.182 305.624 414.182 305.624C414.182 305.624 408.397 306.954 405.326 308.64C402.256 310.325 368.645 342.836 309.153 337.847C249.661 332.858 246.381 324.044 245.87 323.361C245.358 322.677 245.889 311.081 245.889 311.081L333.62 306.095V306.095Z" fill="#F8AE9D"/>
<path fill-rule="evenodd" clip-rule="evenodd" d="M187.02 267.666C185.337 267.841 183.857 267.995 182.561 268.057C176.607 268.342 160.753 275.484 160.753 275.484L160.823 275.709C152.321 279.191 147.85 280.786 139.424 283.656C131.88 286.225 103.553 289.599 86.039 291.51C78.752 292.305 74.047 299.644 76.41 306.582L96.417 365.33C98.585 371.696 105.754 374.811 111.874 372.022C131.318 363.162 169.277 345.864 174.335 343.542C176.993 342.322 180.769 341.886 184.394 341.81C187.381 342.183 195.551 343.695 216.473 349.672C229.805 353.48 237.205 358.358 243.551 362.541C251.196 367.58 257.312 371.611 270.425 371.55C270.425 371.55 321.827 362.545 333.844 360.825C344.915 359.232 349.115 356.862 359.124 351.212C359.967 350.736 360.852 350.237 361.785 349.713C366.288 347.187 370.507 345.373 374.648 343.593C380.832 340.934 386.838 338.352 393.346 333.59C399.456 329.129 403.137 328.052 405.309 327.416C407.004 326.92 407.78 326.693 408.075 325.336C408.747 322.24 400.204 313.973 394.642 314.687C389.079 315.401 379.811 319.828 379.811 319.828C379.811 319.828 346.227 332.693 340.61 333.605C337.793 334.068 329.553 334.292 321.331 334.516C313.163 334.739 305.013 334.961 302.213 335.415C296.599 336.338 254.885 325.92 254.885 325.92C256.373 325.706 257.606 325.466 258.475 325.204C261.905 324.176 268.756 325.475 276.436 326.931C282.294 328.041 288.635 329.243 294.307 329.574C302.735 330.072 308.904 329.48 315.753 328.824C319.56 328.459 323.576 328.074 328.307 327.845C341.549 327.202 348.522 321.207 347.113 312.715C345.703 304.223 340.301 300.699 333.926 299.385C327.55 298.071 310.231 295.12 291.762 295.664C277.345 296.097 270.195 291.32 262.865 286.422C260.807 285.047 258.735 283.663 256.483 282.381C246.213 276.535 229.141 271.005 213.757 268.272C201.722 266.134 193.068 267.036 187.02 267.666V267.666Z" fill="#F8AE9D"/>
<path d="M390.135 203.943C395.744 242.621 368.899 278.521 330.114 284.157C291.356 289.794 255.376 263.002 249.739 224.324C244.13 185.672 271.002 149.745 309.76 144.109C348.545 138.473 384.526 165.265 390.135 203.943V203.943Z" fill="url(#paint6_linear)"/>
<path d="M373.44 206.373C377.714 235.836 357.253 263.215 327.71 267.516C298.167 271.79 270.734 251.382 266.46 221.919C262.187 192.43 282.648 165.051 312.19 160.777C341.733 156.476 369.139 176.884 373.44 206.373Z" fill="white"/>
<path d="M330.455 244.814L332.008 254.2L323.38 255.549L321.881 246.405C313.253 247.242 304.652 245.92 299.325 243.034L302.377 232.083C307.204 234.511 313.78 235.805 320.078 235.428L317.775 221.429C307.842 220.647 296.633 219.217 294.663 207.242C293.193 198.368 298.576 189.71 311.949 186.069L310.423 176.763L319.051 175.415L320.55 184.558C327.098 184.046 333.673 184.747 338.889 186.932L336.281 197.909C331.481 196.156 326.765 195.428 322.381 195.59L324.739 209.831C334.672 210.505 345.687 211.989 347.629 223.803C349.044 232.542 343.745 241.119 330.455 244.814V244.814ZM315.75 209.103L313.78 197.208C309.368 198.934 307.981 201.632 308.425 204.41C308.925 207.323 311.755 208.536 315.75 209.103V209.103ZM333.895 227.012C333.423 224.072 330.649 222.886 326.737 222.184L328.651 233.755C332.813 232.164 334.339 229.683 333.895 227.012V227.012Z" fill="#2BC56B"/>
<path d="M216.638 156.986C220.748 185.322 201.081 211.623 172.667 215.752C144.272 219.881 117.912 200.253 113.783 171.917C109.674 143.601 129.36 117.28 157.755 113.151C186.169 109.022 212.529 128.65 216.638 156.986V156.986Z" fill="url(#paint7_linear)"/>
<path d="M204.407 158.767C207.538 180.352 192.548 200.41 170.905 203.561C149.262 206.692 129.164 191.741 126.033 170.156C122.902 148.552 137.892 128.494 159.535 125.363C181.179 122.212 201.257 137.163 204.407 158.767V158.767Z" fill="white"/>
<path d="M172.916 186.929L174.054 193.805L167.733 194.793L166.635 188.095C160.313 188.707 154.012 187.739 150.11 185.625L152.346 177.602C155.882 179.38 160.7 180.329 165.314 180.052L163.627 169.797C156.35 169.224 148.138 168.176 146.695 159.403C145.618 152.902 149.561 146.559 159.358 143.891L158.24 137.074L164.562 136.086L165.659 142.785C170.456 142.409 175.274 142.923 179.095 144.524L177.184 152.566C173.668 151.281 170.212 150.748 167.001 150.866L168.729 161.3C176.005 161.794 184.075 162.881 185.498 171.536C186.535 177.938 182.652 184.222 172.916 186.929V186.929ZM162.143 160.766L160.7 152.052C157.468 153.317 156.451 155.293 156.777 157.328C157.143 159.462 159.216 160.351 162.143 160.766ZM175.436 173.887C175.091 171.733 173.058 170.864 170.192 170.35L171.595 178.827C174.644 177.661 175.762 175.843 175.436 173.887V173.887Z" fill="#2BC56B"/>
<path d="M319.72 76.0211C324.385 108.191 302.057 138.05 269.798 142.738C237.562 147.426 207.636 125.142 202.948 92.9721C198.282 60.8241 220.632 30.9431 252.869 26.2551C285.128 21.5671 315.054 43.8511 319.72 76.0211V76.0211Z" fill="url(#paint8_linear)"/>
<path d="M305.833 78.042C309.388 102.547 292.37 125.32 267.798 128.896C243.226 132.451 220.409 115.477 216.855 90.972C213.3 66.445 230.318 43.673 254.89 40.118C279.462 36.541 302.256 53.515 305.833 78.042V78.042Z" fill="white"/>
<path d="M270.082 110.015L271.374 117.822L264.197 118.943L262.951 111.338C255.774 112.034 248.62 110.935 244.19 108.534L246.728 99.426C250.743 101.445 256.213 102.522 261.451 102.208L259.536 90.565C251.274 89.914 241.951 88.725 240.313 78.765C239.09 71.384 243.567 64.183 254.69 61.154L253.42 53.415L260.597 52.293L261.843 59.898C267.289 59.472 272.759 60.055 277.097 61.872L274.928 71.003C270.935 69.544 267.012 68.939 263.366 69.073L265.328 80.918C273.589 81.479 282.751 82.713 284.366 92.539C285.543 99.808 281.135 106.941 270.082 110.015V110.015ZM257.851 80.313L256.213 70.419C252.543 71.855 251.39 74.099 251.759 76.409C252.174 78.832 254.528 79.842 257.851 80.313ZM272.943 95.209C272.551 92.763 270.243 91.776 266.989 91.193L268.582 100.817C272.043 99.493 273.312 97.43 272.943 95.209Z" fill="#2BC56B"/>
<defs>
<linearGradient id="paint0_linear" x1="348.423" y1="541.666" x2="161.272" y2="-302.696" gradientUnits="userSpaceOnUse">
<stop stop-color="#C1C1C1"/>
<stop offset="1" stop-color="#EEEEEE"/>
</linearGradient>
<linearGradient id="paint1_linear" x1="362.826" y1="209.873" x2="281.106" y2="-157.343" gradientUnits="userSpaceOnUse">
<stop stop-color="#C1C1C1"/>
<stop offset="1" stop-color="#EEEEEE"/>
</linearGradient>
<linearGradient id="paint2_linear" x1="125.799" y1="469.298" x2="52.0181" y2="128.099" gradientUnits="userSpaceOnUse">
<stop stop-color="#C1C1C1"/>
<stop offset="1" stop-color="#EEEEEE"/>
</linearGradient>
<linearGradient id="paint3_linear" x1="416.398" y1="162.881" x2="555.715" y2="97.063" gradientUnits="userSpaceOnUse">
<stop stop-color="#C1C1C1"/>
<stop offset="1" stop-color="#EEEEEE"/>
</linearGradient>
<linearGradient id="paint4_linear" x1="558.916" y1="333.167" x2="445.339" y2="213.402" gradientUnits="userSpaceOnUse">
<stop stop-color="#C1C1C1"/>
<stop offset="1" stop-color="#EEEEEE"/>
</linearGradient>
<linearGradient id="paint5_linear" x1="75.4119" y1="252.58" x2="-37.6711" y2="75.3132" gradientUnits="userSpaceOnUse">
<stop stop-color="#C1C1C1"/>
<stop offset="1" stop-color="#EEEEEE"/>
</linearGradient>
<linearGradient id="paint6_linear" x1="322.963" y1="364.265" x2="318.608" y2="-10.6179" gradientUnits="userSpaceOnUse">
<stop stop-color="#C1C1C1"/>
<stop offset="1" stop-color="#EEEEEE"/>
</linearGradient>
<linearGradient id="paint7_linear" x1="167.427" y1="274.439" x2="164.237" y2="-0.202945" gradientUnits="userSpaceOnUse">
<stop stop-color="#C1C1C1"/>
<stop offset="1" stop-color="#EEEEEE"/>
</linearGradient>
<linearGradient id="paint8_linear" x1="263.85" y1="209.366" x2="260.228" y2="-102.436" gradientUnits="userSpaceOnUse">
<stop stop-color="#C1C1C1"/>
<stop offset="1" stop-color="#EEEEEE"/>
</linearGradient>
</defs>
</svg>
