<svg width="641" height="457" viewBox="0 0 641 457" fill="none" xmlns="http://www.w3.org/2000/svg">
<path fill-rule="evenodd" clip-rule="evenodd" d="M288.443 332.666V306.017H321.763L350.05 277.73L389.099 294.314C403.252 300.326 419.629 297.141 430.484 286.267L485.947 230.804C496.822 219.93 499.988 203.553 493.995 189.418L465.688 122.779C461.873 113.791 454.718 106.636 445.73 102.822L379.092 74.5149C372.178 71.5763 364.542 70.7723 357.168 72.2062C349.793 73.6401 343.015 77.2465 337.706 82.5619L282.243 138.026C271.388 148.881 268.203 165.258 274.214 179.411L290.365 217.461L176.838 330.988V390.956H236.805L261.795 365.966V332.647H288.443V332.666V332.666Z" fill="#2BC56B"/>
<path fill-rule="evenodd" clip-rule="evenodd" d="M381.648 150.327C364.74 150.398 351.015 164.122 351.086 181.03C351.086 197.938 364.881 211.662 381.789 211.592C398.697 211.592 412.421 197.867 412.421 180.959C412.421 164.051 398.697 150.327 381.789 150.327" fill="white"/>
<path fill-rule="evenodd" clip-rule="evenodd" d="M484.471 322.045H490.474C491.169 322.046 491.835 322.322 492.327 322.813C492.818 323.305 493.095 323.971 493.095 324.666V330.669C493.094 331.364 492.818 332.03 492.327 332.521C491.835 333.012 491.169 333.289 490.474 333.289H484.471C483.777 333.286 483.112 333.01 482.621 332.519C482.131 332.028 481.854 331.363 481.851 330.669V324.666C481.839 323.226 483.02 322.045 484.471 322.045ZM505.284 322.045H511.287C511.982 322.047 512.647 322.324 513.138 322.815C513.629 323.306 513.906 323.972 513.908 324.666V330.669C513.907 331.364 513.631 332.03 513.14 332.521C512.648 333.012 511.982 333.289 511.287 333.289H505.284C504.59 333.286 503.925 333.01 503.434 332.519C502.944 332.028 502.667 331.363 502.664 330.669V324.666C502.667 323.972 502.943 323.307 503.434 322.816C503.925 322.325 504.59 322.048 505.284 322.045ZM526.112 322.045H532.115C532.809 322.048 533.474 322.325 533.965 322.816C534.456 323.307 534.733 323.972 534.735 324.666V330.669C534.735 332.12 533.555 333.289 532.115 333.289H526.112C525.418 333.286 524.753 333.01 524.262 332.519C523.772 332.028 523.495 331.363 523.492 330.669V324.666C523.479 323.226 524.66 322.045 526.112 322.045ZM546.925 322.045H552.928C553.623 322.047 554.288 322.324 554.779 322.815C555.27 323.306 555.547 323.972 555.549 324.666V330.669C555.548 331.364 555.272 332.03 554.781 332.521C554.289 333.012 553.623 333.289 552.928 333.289H546.925C546.229 333.289 545.562 333.013 545.069 332.522C544.575 332.031 544.297 331.365 544.293 330.669V324.666C544.305 323.226 545.486 322.045 546.925 322.045ZM567.74 322.045H573.744C574.44 322.045 575.108 322.321 575.601 322.812C576.094 323.304 576.373 323.97 576.376 324.666V330.669C576.375 331.014 576.307 331.355 576.174 331.674C576.042 331.992 575.847 332.281 575.603 332.524C575.359 332.768 575.069 332.961 574.75 333.092C574.431 333.223 574.089 333.29 573.744 333.289H567.74C567.046 333.286 566.381 333.01 565.89 332.519C565.4 332.028 565.123 331.363 565.12 330.669V324.666C565.123 323.972 565.399 323.307 565.89 322.816C566.381 322.325 567.046 322.048 567.74 322.045V322.045ZM506.048 344.742H512.051C512.745 344.745 513.41 345.022 513.901 345.512C514.392 346.003 514.669 346.668 514.671 347.362V353.378C514.669 354.072 514.392 354.737 513.901 355.228C513.41 355.719 512.745 355.995 512.051 355.998H506.048C505.353 355.998 504.687 355.721 504.196 355.23C503.705 354.739 503.429 354.073 503.428 353.378V347.375C503.426 347.03 503.492 346.687 503.623 346.368C503.753 346.048 503.946 345.758 504.19 345.513C504.433 345.268 504.723 345.074 505.042 344.942C505.361 344.809 505.703 344.742 506.048 344.742V344.742ZM526.861 344.742H532.864C533.558 344.744 534.224 345.021 534.715 345.512C535.205 346.003 535.483 346.668 535.485 347.362V353.378C535.483 354.072 535.205 354.737 534.715 355.228C534.224 355.719 533.558 355.996 532.864 355.998H526.861C526.167 355.995 525.502 355.719 525.011 355.228C524.521 354.737 524.244 354.072 524.241 353.378V347.375C524.239 347.03 524.306 346.688 524.436 346.368C524.567 346.049 524.76 345.758 525.003 345.513C525.247 345.269 525.536 345.075 525.855 344.942C526.174 344.81 526.516 344.742 526.861 344.742V344.742ZM547.676 344.742H553.679C554.375 344.742 555.043 345.018 555.536 345.509C556.03 346 556.309 346.666 556.312 347.362V353.378C556.309 354.074 556.03 354.741 555.536 355.231C555.043 355.722 554.375 355.998 553.679 355.998H547.676C546.982 355.995 546.317 355.719 545.826 355.228C545.336 354.737 545.059 354.072 545.056 353.378V347.375C545.056 346.679 545.332 346.011 545.823 345.518C546.314 345.024 546.98 344.746 547.676 344.742V344.742ZM526.112 297.664H532.115C533.555 297.664 534.735 298.844 534.735 300.284V306.287C534.735 307.739 533.555 308.907 532.115 308.907H526.112C525.418 308.904 524.753 308.628 524.262 308.137C523.772 307.646 523.495 306.981 523.492 306.287V300.284C523.479 298.844 524.66 297.664 526.112 297.664ZM546.925 297.664H552.928C553.622 297.666 554.288 297.943 554.779 298.434C555.27 298.925 555.547 299.59 555.549 300.284V306.287C555.549 306.982 555.272 307.648 554.781 308.139C554.289 308.631 553.623 308.907 552.928 308.907H546.925C546.229 308.907 545.562 308.631 545.069 308.14C544.575 307.649 544.297 306.983 544.293 306.287V300.284C544.301 299.589 544.58 298.925 545.073 298.435C545.565 297.945 546.23 297.668 546.925 297.664V297.664Z" fill="#E1E4E5"/>
<path d="M604.292 252.186C581.355 257.62 557.095 238.168 557.095 238.168C557.095 238.168 570.041 209.916 592.986 204.499C615.923 199.065 640.175 218.501 640.175 218.501C640.175 218.501 627.229 246.752 604.292 252.186V252.186Z" fill="url(#paint0_linear)"/>
<path d="M47.615 305.534C24.678 310.968 0.417969 291.516 0.417969 291.516C0.417969 291.516 13.364 263.264 36.309 257.847C59.246 252.413 83.498 271.849 83.498 271.849C83.498 271.849 70.552 300.101 47.615 305.534V305.534Z" fill="url(#paint1_linear)"/>
<path d="M221.429 97.8709C250.169 92.0609 267.44 57.4509 267.44 57.4509C267.44 57.4509 238.099 32.2809 209.359 38.1139C180.619 43.9239 163.348 78.5109 163.348 78.5109C163.348 78.5109 192.688 103.681 221.429 97.8709V97.8709Z" fill="url(#paint2_linear)"/>
<path d="M584.807 120.223C574.062 120.223 565.352 128.554 565.352 138.832C565.352 149.109 574.062 157.441 584.807 157.441C595.552 157.441 604.262 149.109 604.262 138.832C604.262 128.554 595.552 120.223 584.807 120.223Z" fill="#2BC56B"/>
<path d="M291.194 405.623C281.84 405.623 274.257 413.206 274.257 422.56C274.257 431.914 281.84 439.497 291.194 439.497C300.548 439.497 308.131 431.914 308.131 422.56C308.131 413.206 300.548 405.623 291.194 405.623Z" fill="#2BC56B"/>
<path d="M141.686 157.388C136.547 157.388 132.381 153.222 132.381 148.083C132.381 142.944 136.547 138.778 141.686 138.778C146.825 138.778 150.991 142.944 150.991 148.083C150.991 153.222 146.825 157.388 141.686 157.388Z" fill="#2BC56B"/>
<path d="M405.883 419.437C397.556 419.437 390.806 412.946 390.806 404.94C390.806 396.933 397.556 390.443 405.883 390.443C414.21 390.443 420.96 396.933 420.96 404.94C420.96 412.946 414.21 419.437 405.883 419.437Z" fill="#E1E4E5"/>
<path d="M176.314 240.948C170.839 240.948 166.4 236.509 166.4 231.034C166.4 225.559 170.839 221.12 176.314 221.12C181.789 221.12 186.228 225.559 186.228 231.034C186.228 236.509 181.789 240.948 176.314 240.948Z" fill="#E1E4E5"/>
<path d="M495.763 456.548C490.959 456.548 487.065 452.394 487.065 447.27C487.065 442.146 490.959 437.992 495.763 437.992C500.567 437.992 504.461 442.146 504.461 447.27C504.461 452.394 500.567 456.548 495.763 456.548Z" fill="#E1E4E5"/>
<path d="M411.447 17.687C406.775 17.687 402.988 13.8998 402.988 9.22804C402.988 4.55627 406.775 0.769043 411.447 0.769043C416.119 0.769043 419.906 4.55627 419.906 9.22804C419.906 13.8998 416.119 17.687 411.447 17.687Z" fill="#E1E4E5"/>
<path d="M120.165 352.939C121.347 357.349 118.73 361.882 114.32 363.063C109.911 364.245 105.378 361.628 104.197 357.218C103.015 352.809 105.632 348.276 110.041 347.094C114.451 345.913 118.984 348.53 120.165 352.939Z" fill="#E1E4E5"/>
<path d="M514.897 54.4978C517.356 63.675 511.91 73.108 502.733 75.5671C493.555 78.0261 484.122 72.5799 481.663 63.4027C479.204 54.2255 484.651 44.7925 493.828 42.3334C503.005 39.8744 512.438 45.3206 514.897 54.4978Z" fill="#E1E4E5"/>
<defs>
<linearGradient id="paint0_linear" x1="517.917" y1="265.696" x2="718.707" y2="170.836" gradientUnits="userSpaceOnUse">
<stop stop-color="white"/>
<stop offset="1" stop-color="#EEEEEE"/>
</linearGradient>
<linearGradient id="paint1_linear" x1="-38.76" y1="319.045" x2="162.031" y2="224.184" gradientUnits="userSpaceOnUse">
<stop stop-color="white"/>
<stop offset="1" stop-color="#EEEEEE"/>
</linearGradient>
<linearGradient id="paint2_linear" x1="326.036" y1="68.1389" x2="49.8081" y2="65.5769" gradientUnits="userSpaceOnUse">
<stop stop-color="white"/>
<stop offset="1" stop-color="#EEEEEE"/>
</linearGradient>
</defs>
</svg>
